<?xml version="1.0"?>
<svg xmlns="http://www.w3.org/2000/svg" xmlns:xlink="http://www.w3.org/1999/xlink" xmlns:svgjs="http://svgjs.com/svgjs" version="1.1" width="512" height="512" x="0" y="0" viewBox="0 0 469.333 469.333" style="enable-background:new 0 0 512 512" xml:space="preserve" class=""><g transform="matrix(-6.123233995736766e-17,1,-1,-6.123233995736766e-17,469.3330078125,1.7053025658242404e-13)">
<g xmlns="http://www.w3.org/2000/svg">
	<g>
		<polygon points="93.44,136.107 65.707,164.48 106.24,204.8 127.787,213.333 0,213.333 0,256 127.573,256 106.88,263.68     65.707,304.853 93.653,332.8 192,234.453   " fill="#000000" data-original="#000000" style="" class=""/>
	</g>
</g>
<g xmlns="http://www.w3.org/2000/svg">
	<g>
		<polygon points="469.333,213.333 341.547,213.333 363.093,204.8 403.627,164.48 375.893,136.107 277.333,234.453 375.68,332.8     403.627,304.853 362.453,263.68 341.76,256 469.333,256   " fill="#000000" data-original="#000000" style="" class=""/>
	</g>
</g>
<g xmlns="http://www.w3.org/2000/svg">
	<g>
		<polygon points="234.453,277.333 136.107,375.893 164.48,403.627 204.8,363.093 213.333,341.547 213.333,469.333 256,469.333     256,341.76 263.68,362.453 304.853,403.627 332.8,375.68   " fill="#000000" data-original="#000000" style="" class=""/>
	</g>
</g>
<g xmlns="http://www.w3.org/2000/svg">
	<g>
		<polygon points="304.853,65.707 263.68,106.88 256,127.573 256,0 213.333,0 213.333,127.787 204.8,106.24 164.48,65.707     136.107,93.44 234.453,192 332.8,93.653   " fill="#000000" data-original="#000000" style="" class=""/>
	</g>
</g>
<g xmlns="http://www.w3.org/2000/svg">
</g>
<g xmlns="http://www.w3.org/2000/svg">
</g>
<g xmlns="http://www.w3.org/2000/svg">
</g>
<g xmlns="http://www.w3.org/2000/svg">
</g>
<g xmlns="http://www.w3.org/2000/svg">
</g>
<g xmlns="http://www.w3.org/2000/svg">
</g>
<g xmlns="http://www.w3.org/2000/svg">
</g>
<g xmlns="http://www.w3.org/2000/svg">
</g>
<g xmlns="http://www.w3.org/2000/svg">
</g>
<g xmlns="http://www.w3.org/2000/svg">
</g>
<g xmlns="http://www.w3.org/2000/svg">
</g>
<g xmlns="http://www.w3.org/2000/svg">
</g>
<g xmlns="http://www.w3.org/2000/svg">
</g>
<g xmlns="http://www.w3.org/2000/svg">
</g>
<g xmlns="http://www.w3.org/2000/svg">
</g>
</g></svg>
