<?xml version="1.0" standalone="no"?>
<!DOCTYPE svg PUBLIC "-//W3C//DTD SVG 20010904//EN"
 "http://www.w3.org/TR/2001/REC-SVG-20010904/DTD/svg10.dtd">
<svg version="1.0" xmlns="http://www.w3.org/2000/svg"
 width="640.000000pt" height="640.000000pt" viewBox="0 0 640.000000 640.000000"
 preserveAspectRatio="xMidYMid meet">

<g transform="translate(0.000000,640.000000) scale(0.100000,-0.100000)"
fill="#000000" stroke="none">
<path d="M2649 5408 l-553 -613 492 -3 492 -2 0 -610 0 -610 -1227 -2 -1228
-3 0 -125 0 -125 1228 -3 1227 -2 0 -115 0 -115 -1227 -2 -1228 -3 0 -125 0
-125 1228 -3 1227 -2 0 -610 0 -610 -490 0 c-269 0 -490 -3 -489 -7 0 -13
1094 -1218 1105 -1218 10 0 1096 1197 1102 1216 2 5 -191 9 -487 9 l-491 0 0
610 0 610 1228 2 1227 3 0 125 0 125 -1227 3 -1228 2 0 115 0 115 1228 2 1227
3 0 125 0 125 -1227 3 -1228 2 0 610 0 610 490 0 c270 0 490 2 490 5 0 6
-1099 1225 -1104 1225 -2 0 -253 -276 -557 -612z"/>
</g>
</svg>
